<svg id="Grid_-_16x16" data-name="Grid - 16x16" xmlns="http://www.w3.org/2000/svg" viewBox="0 0 80 80"><defs><style>.cls-1,.cls-5{fill:none;}.cls-1,.cls-2,.cls-3,.cls-4,.cls-5{stroke:#679186;stroke-miterlimit:10;}.cls-2,.cls-3,.cls-4{fill:#fff;}.cls-3{stroke-width:0.81px;}.cls-4{stroke-width:0.81px;}.cls-5{stroke-width:1.06px;}.cls-6{fill:#679186;}</style></defs><title>antwerp-icon</title><rect class="cls-1" x="30" y="55" width="20" height="20"/><rect class="cls-1" x="30" y="50" width="20" height="5"/><line class="cls-2" x1="30" y1="45" x2="30" y2="50"/><line class="cls-2" x1="50" y1="45" x2="50" y2="50"/><rect class="cls-1" x="32.5" y="25" width="15" height="25"/><rect class="cls-1" x="32.5" y="22.5" width="15" height="2.5"/><line class="cls-2" x1="32.5" y1="20" x2="32.5" y2="22.5"/><line class="cls-2" x1="47.5" y1="20" x2="47.5" y2="22.5"/><rect class="cls-1" x="35" y="15" width="10" height="7.5"/><rect class="cls-1" x="35" y="12.5" width="10" height="2.5"/><line class="cls-2" x1="35" y1="10" x2="35" y2="12.5"/><line class="cls-2" x1="45" y1="10" x2="45" y2="12.5"/><line class="cls-2" x1="40" y1="5" x2="40" y2="12.5"/><line class="cls-2" x1="37.5" y1="17.5" x2="37.5" y2="20"/><line class="cls-2" x1="42.5" y1="17.5" x2="42.5" y2="20"/><line class="cls-3" x1="37.5" y1="27.5" x2="37.5" y2="40.6"/><line class="cls-4" x1="42.5" y1="27.5" x2="42.5" y2="40.6"/><line class="cls-2" x1="37.5" y1="57.5" x2="37.5" y2="72.5"/><line class="cls-2" x1="42.5" y1="57.5" x2="42.5" y2="72.5"/><circle class="cls-5" cx="40" cy="43.72" r="4"/><circle class="cls-6" cx="40" cy="43.72" r="2"/></svg>