<svg id="Grid_-_16x16" data-name="Grid - 16x16" xmlns="http://www.w3.org/2000/svg" viewBox="0 0 80 80"><defs><style>.cls-1,.cls-3{fill:none;}.cls-2{fill:#679186;}.cls-3{stroke:#679186;stroke-miterlimit:10;stroke-width:0.5px;}</style></defs><title>branding-icon</title><polygon class="cls-1" points="28.56 46.1 51.18 46.1 39.95 18.05 28.56 46.1"/><path class="cls-2" d="M42.27,15.51,59.39,55.68c1.66,3.87,3.76,5.12,5,5.52v3.25H49.15V61.34c1.46-.14,4-.64,5.12-2.4a4,4,0,0,0-.12-4.09L52,49.8l-.26-.62H28.17l-.27.62-2.21,5.09A4.25,4.25,0,0,0,25.84,59c1.12,1.66,3.49,2.15,4.87,2.3v3.11H15.46V61.23c1.2-.39,3.14-1.63,5-5.52l0,0v0L37.25,15.51h5M29,46.12H50.69l-.56-1.39L40.89,21.67,40,19.32l-1,2.34L29.62,44.72,29,46.12M43,14.49H36.57l-17,40.79c-2.33,4.89-4.66,5.1-5,5.1h-.05v5.1H31.73v-5.1h0c-.23,0-7.15,0-5.09-5.09l2.21-5.08H51l2.18,5.08c2.55,5.09-5.09,5.09-5.09,5.09v5.1H65.42v-5.1h0c-.19,0-2.93-.08-5.09-5.09L43,14.49ZM30.56,45.1l9.39-23L49.18,45.1Z"/><line class="cls-3" x1="5" y1="65" x2="75" y2="65"/><line class="cls-3" x1="4.93" y1="60.77" x2="74.93" y2="60.77"/><line class="cls-3" x1="65" y1="5" x2="65" y2="75"/><line class="cls-3" x1="15" y1="5" x2="15" y2="75"/><line class="cls-3" x1="5" y1="15" x2="75" y2="15"/><line class="cls-3" x1="41.06" y1="5" x2="11.67" y2="75"/><line class="cls-3" x1="46.1" y1="5" x2="18.1" y2="75"/></svg>