<svg id="Grid_-_16x16" data-name="Grid - 16x16" xmlns="http://www.w3.org/2000/svg" viewBox="0 0 80 80"><defs><style>.cls-1{fill:none;stroke:#679186;stroke-miterlimit:10;stroke-width:1.1px;}</style></defs><title>coffee-icon</title><path class="cls-1" d="M15.59,20V18a3,3,0,0,1,3-3H61.41a3,3,0,0,1,3,3v2Z"/><path class="cls-1" d="M21.69,15V12.62a3,3,0,0,1,2.6-3L54.9,5.47a3,3,0,0,1,3.41,3V15"/><path class="cls-1" d="M20,20l4.7,52.33a3,3,0,0,0,3,2.67H52.31a3,3,0,0,0,3-2.67L60,20"/><ellipse class="cls-1" cx="40" cy="42.5" rx="5" ry="7.5"/><path class="cls-1" d="M40,35c2.5,5-2.5,10,0,15"/></svg>