<svg id="Grid_-_16x16" data-name="Grid - 16x16" xmlns="http://www.w3.org/2000/svg" viewBox="0 0 80 80"><defs><style>.cls-1{fill:none;stroke:#679186;stroke-miterlimit:10;}</style></defs><title>dogs-icon</title><path class="cls-1" d="M15.94,20.92l-5.28,9.14a6.7,6.7,0,0,0,4.66,10,3.51,3.51,0,0,0,2-.31,11.16,11.16,0,0,1,8.8,0A4,4,0,0,0,28.2,40a6.71,6.71,0,0,0,4.61-9.95l-5.27-9.14A6.7,6.7,0,0,0,15.94,20.92Z"/><ellipse class="cls-1" cx="8.22" cy="20.73" rx="3.14" ry="4.18" transform="matrix(0.97, -0.26, 0.26, 0.97, -5.09, 2.83)"/><ellipse class="cls-1" cx="35.42" cy="20.73" rx="4.18" ry="3.14" transform="translate(6.22 49.58) rotate(-75)"/><ellipse class="cls-1" cx="28.01" cy="10.11" rx="5.18" ry="3.88" transform="translate(14.57 36.68) rotate(-83)"/><ellipse class="cls-1" cx="15.52" cy="10.11" rx="3.82" ry="5.1" transform="translate(-1.12 1.97) rotate(-7)"/><path class="cls-1" d="M52.3,55.82,47,65a6.7,6.7,0,0,0,3.54,9.65,4.69,4.69,0,0,0,3.28-.06,11.22,11.22,0,0,1,8.52,0,4.69,4.69,0,0,0,3.28.06A6.7,6.7,0,0,0,69.18,65L63.9,55.82A6.69,6.69,0,0,0,52.3,55.82Z"/><ellipse class="cls-1" cx="44.58" cy="55.63" rx="3.14" ry="4.18" transform="matrix(0.97, -0.26, 0.26, 0.97, -12.88, 13.43)"/><ellipse class="cls-1" cx="71.78" cy="55.63" rx="4.18" ry="3.14" transform="translate(-0.53 110.56) rotate(-75)"/><ellipse class="cls-1" cx="64.38" cy="45" rx="5.18" ry="3.88" transform="translate(11.87 103.41) rotate(-83)"/><ellipse class="cls-1" cx="51.88" cy="45" rx="3.82" ry="5.1" transform="translate(-5.1 6.66) rotate(-7)"/></svg>