<svg id="Grid_-_16x16" data-name="Grid - 16x16" xmlns="http://www.w3.org/2000/svg" viewBox="0 0 80 80"><defs><style>.cls-1{fill:none;stroke:#679186;stroke-miterlimit:10;}</style></defs><title>graph-icon</title><rect class="cls-1" x="5" y="18.65" width="70" height="42.7"/><line class="cls-1" x1="48.22" y1="51.34" x2="58.4" y2="51.34"/><line class="cls-1" x1="54.52" y1="44.72" x2="54.52" y2="51.34"/><line class="cls-1" x1="54.52" y1="48.84" x2="58.4" y2="48.84"/><path class="cls-1" d="M5,61.35s2.42-42.7,43.22-42.7v42.7"/><path class="cls-1" d="M48.22,18.65S75,19.72,75,44.72H48.22"/><path class="cls-1" d="M75,44.72s-.47,16.63-16.6,16.63V44.72"/><path class="cls-1" d="M58.4,61.35s-10.18-.26-10.18-10c0,0,.82-6.62,6.3-6.62,0,0,3.88.76,3.88,4.12a2.43,2.43,0,0,1-2.67,2.5"/></svg>