<svg id="Grid_-_16x16" data-name="Grid - 16x16" xmlns="http://www.w3.org/2000/svg" viewBox="0 0 80 80"><defs><style>.cls-1{fill:#679186;}.cls-2{fill:none;stroke:#679186;stroke-miterlimit:10;}</style></defs><title>idea-icon</title><path class="cls-1" d="M40,6A21.49,21.49,0,0,1,54.27,43.57,15.42,15.42,0,0,0,49,55v4H31V55a15.4,15.4,0,0,0-5.28-11.46A21.5,21.5,0,0,1,38.62,6c.46,0,.92,0,1.38,0m0-1c-.48,0-1,0-1.44,0A22.5,22.5,0,0,0,25.05,44.31,14.37,14.37,0,0,1,30,55v5H50V55a14.37,14.37,0,0,1,4.94-10.71A22.5,22.5,0,0,0,40,5Z"/><path class="cls-1" d="M49,63v4.9A6.11,6.11,0,0,1,42.9,74H37.1A6.11,6.11,0,0,1,31,67.9V63H49m1-1H30v5.9A7.1,7.1,0,0,0,37.1,75h5.8A7.1,7.1,0,0,0,50,67.9V62Z"/><line class="cls-2" x1="30.5" y1="68.13" x2="49" y2="68.13"/><line class="cls-2" x1="35.5" y1="59" x2="35.5" y2="35"/><line class="cls-2" x1="44.5" y1="59" x2="44.5" y2="35"/><line class="cls-2" x1="32.5" y1="39.5" x2="47.5" y2="39.5"/></svg>