<svg id="Layer_1" data-name="Layer 1" xmlns="http://www.w3.org/2000/svg" viewBox="0 0 48 48"><defs><style>.cls-1{fill:#679186;}</style></defs><title>logo</title><g id="Home"><path class="cls-1" d="M5.35,8v6.1H17.71V28.88a4.56,4.56,0,0,1-1.21,3.31,4.43,4.43,0,0,1-3.31,1.25,4.47,4.47,0,0,1-3.35-1.25,4.56,4.56,0,0,1-1.21-3.31v-2H1.72V28.5a12.82,12.82,0,0,0,1.39,6.22,9.2,9.2,0,0,0,4,3.9A13,13,0,0,0,13.19,40a13.12,13.12,0,0,0,6.16-1.35,9.28,9.28,0,0,0,4-3.9A12.94,12.94,0,0,0,24.7,28.5V8Z"/><polygon class="cls-1" points="39.2 8.11 32.43 33.88 32.22 34.67 30.92 39.63 37.34 39.63 46.28 8.11 39.2 8.11"/></g></svg>