<svg id="Grid_-_16x16" data-name="Grid - 16x16" xmlns="http://www.w3.org/2000/svg" viewBox="0 0 80 80"><defs><style>.cls-1{fill:none;stroke:#679186;stroke-miterlimit:10;}</style></defs><title>reading-icon2</title><path class="cls-1" d="M10,10.39V65l29.34-4.89a4.17,4.17,0,0,1,1.32,0L70,65V10L40.68,5.11a4.14,4.14,0,0,0-1.36,0Z"/><path class="cls-1" d="M5,15V71.25l33.59-6a7.86,7.86,0,0,1,2.82,0l33.59,6V15"/><line class="cls-1" x1="40" y1="10" x2="40" y2="55"/><line class="cls-1" x1="15.07" y1="20.49" x2="34.93" y2="17.05"/><line class="cls-1" x1="15.07" y1="28.44" x2="34.93" y2="25"/><line class="cls-1" x1="15.07" y1="36.38" x2="34.93" y2="32.94"/><line class="cls-1" x1="15.07" y1="44.33" x2="34.93" y2="40.89"/><line class="cls-1" x1="15.07" y1="52.27" x2="34.93" y2="48.84"/><line class="cls-1" x1="64.93" y1="20.49" x2="45.07" y2="17.05"/><line class="cls-1" x1="64.93" y1="28.44" x2="45.07" y2="25"/><line class="cls-1" x1="64.93" y1="36.38" x2="45.07" y2="32.94"/><line class="cls-1" x1="64.93" y1="44.33" x2="45.07" y2="40.89"/><line class="cls-1" x1="64.93" y1="52.27" x2="45.07" y2="48.84"/></svg>