<svg id="Layer_1" data-name="Layer 1" xmlns="http://www.w3.org/2000/svg" viewBox="0 0 318.31 173.72"><defs><style>.cls-1{fill:#b7c5b7;}.cls-2{fill:none;stroke:#b7c5b7;stroke-linecap:round;stroke-miterlimit:10;stroke-width:10px;}.cls-3{fill:#3f5e3c;}</style></defs><title>social-stamp</title><g id="Home"><circle class="cls-1" cx="205" cy="74.72" r="52"/><path class="cls-2" d="M221.41,138.68a66.34,66.34,0,1,1,47.7-80.79A66.34,66.34,0,0,1,221.41,138.68ZM307.7,69.24c-31.93,8.23-43.1,19.61-61.56,24.37-31.94,8.22-42.72,2.49-65.93,8.46-31.93,8.22-29.87,16.21-61.81,24.43s-44.72,3-65.92,8.46S22.6,151.17,22.6,151.17m289.21-66c-31.93,8.22-43.1,19.61-61.56,24.37-31.94,8.22-42.72,2.48-65.92,8.46-31.94,8.22-29.88,16.2-61.82,24.43s-44.71,3-65.92,8.46-29.88,16.21-29.88,16.21M299.48,37.31c-31.94,8.22-43.1,19.61-61.57,24.36C206,69.9,195.19,64.16,172,70.14c-31.93,8.22-29.88,16.2-61.81,24.43s-44.72,3-65.92,8.46-29.88,16.21-29.88,16.21m289.21-66C271.65,61.5,260.49,72.89,242,77.64c-31.94,8.22-42.73,2.49-65.93,8.46-31.93,8.23-29.88,16.21-61.81,24.43s-44.72,3-65.92,8.47-29.88,16.2-29.88,16.2M291.25,5.38C259.32,13.6,248.15,25,229.69,29.74,197.76,38,187,32.23,163.77,38.2,131.83,46.43,133.89,54.41,102,62.63S57.24,65.64,36,71.1,6.15,87.3,6.15,87.3m289.21-66C263.43,29.57,252.26,41,233.8,45.71c-31.93,8.22-42.72,2.49-65.92,8.46C136,62.39,138,70.38,106.07,78.6s-44.72,3-65.93,8.46-29.87,16.21-29.87,16.21"/><path class="cls-3" d="M167.79,94.71l-1.07-4.19a5.78,5.78,0,0,1-.16-2.41,4.9,4.9,0,0,1,.93-2.1,11,11,0,0,1,2.15-2.08l2.93-2.28a4.75,4.75,0,0,0,1.52-1.79,3.35,3.35,0,0,0,.09-2.14,2.93,2.93,0,0,0-1.28-1.82,3,3,0,0,0-2.4-.21,3,3,0,0,0-2,1.38,3.16,3.16,0,0,0-.2,2.37l-4.44,1.15a7.5,7.5,0,0,1-.06-3.7,6.13,6.13,0,0,1,1.86-3.08,10.16,10.16,0,0,1,8.14-2.13,6.36,6.36,0,0,1,3.08,1.68,6.6,6.6,0,0,1,1.7,3l.08.33a6,6,0,0,1-.29,4.21,11,11,0,0,1-3.27,3.71l-2.9,2.27a3.65,3.65,0,0,0-1,1.06,1.59,1.59,0,0,0-.07,1.15l.36,1.4-1.33-.64L181.34,87l1,3.94ZM196.1,88a10.25,10.25,0,0,1-4.37.27,7.65,7.65,0,0,1-3.37-1.44A9.64,9.64,0,0,1,186,84.06a14.5,14.5,0,0,1-1.5-3.68L184,78.79a13.1,13.1,0,0,1-.32-5.31,8.34,8.34,0,0,1,2.06-4.38,9.38,9.38,0,0,1,4.77-2.66,9.27,9.27,0,0,1,5.44,0,8.37,8.37,0,0,1,3.91,2.84,13,13,0,0,1,2.28,4.81l.41,1.59a14.25,14.25,0,0,1,.46,4,9.4,9.4,0,0,1-.77,3.58A7.73,7.73,0,0,1,200,86.12,10.11,10.11,0,0,1,196.1,88ZM195,83.77a4,4,0,0,0,3-2.45,8.91,8.91,0,0,0-.16-5.19c-.6-2.34-1.42-3.94-2.44-4.78a4,4,0,0,0-3.73-.69,4,4,0,0,0-3,2.42q-.72,1.85.18,5.31a9,9,0,0,0,2.37,4.66A4,4,0,0,0,195,83.77Zm23.91-1.66a10,10,0,0,1-4.36.27,7.6,7.6,0,0,1-3.37-1.44,9.64,9.64,0,0,1-2.41-2.76,14.5,14.5,0,0,1-1.5-3.68l-.41-1.59a12.93,12.93,0,0,1-.32-5.31,8.34,8.34,0,0,1,2.06-4.38,9.3,9.3,0,0,1,4.77-2.65,9.2,9.2,0,0,1,5.44,0,8.42,8.42,0,0,1,3.91,2.84A13,13,0,0,1,225,68.24l.41,1.59a14.25,14.25,0,0,1,.46,4,9.4,9.4,0,0,1-.77,3.58,7.73,7.73,0,0,1-2.24,2.88A10.16,10.16,0,0,1,218.92,82.11Zm-1.08-4.22a4,4,0,0,0,3-2.45,9,9,0,0,0-.16-5.18c-.6-2.35-1.42-3.94-2.44-4.78a4.54,4.54,0,0,0-6.72,1.73q-.72,1.83.18,5.3A9,9,0,0,0,214,77.17,4,4,0,0,0,217.84,77.89Zm22.56-1.25a12,12,0,0,1-4.48.38,6.59,6.59,0,0,1-3.4-1.39,5.85,5.85,0,0,1-1.89-3.15,6,6,0,0,1-.17-2.38,4.94,4.94,0,0,1,.75-2,5.6,5.6,0,0,1,1.52-1.55l-.09-.37a5.48,5.48,0,0,1-1.66-.54,4.06,4.06,0,0,1-1.37-1.15,5.16,5.16,0,0,1-.86-1.86,5,5,0,0,1,.18-3.39,6.2,6.2,0,0,1,2.23-2.55,12.55,12.55,0,0,1,7.73-2,6.12,6.12,0,0,1,3.16,1.16,5,5,0,0,1,1.78,2.88,5.09,5.09,0,0,1,.16,2,3.93,3.93,0,0,1-.63,1.66,5.34,5.34,0,0,1-1.22,1.29l.09.36a5.89,5.89,0,0,1,2.1.62A4.83,4.83,0,0,1,246,66.1a6,6,0,0,1,1,2.17,5.77,5.77,0,0,1-.14,3.67,6.53,6.53,0,0,1-2.3,2.86A12.11,12.11,0,0,1,240.4,76.64ZM237,63.48a4,4,0,0,0,2.14-1.19,2.1,2.1,0,0,0,.38-2,2,2,0,0,0-1.28-1.51A4.87,4.87,0,0,0,233.67,60a2.27,2.27,0,0,0,.91,3.46A4,4,0,0,0,237,63.48Zm2.42,9.39a5.5,5.5,0,0,0,1.89-.85,2.79,2.79,0,0,0,1.1-3.14,2.9,2.9,0,0,0-.88-1.52,3,3,0,0,0-1.57-.67,5.49,5.49,0,0,0-2.09.17,5.26,5.26,0,0,0-1.88.86,2.78,2.78,0,0,0-1,1.34,2.87,2.87,0,0,0,0,1.75,3,3,0,0,0,.88,1.54,2.73,2.73,0,0,0,1.56.69A5.53,5.53,0,0,0,239.43,72.87ZM182.38,60a4.24,4.24,0,0,1-2.26,1.51A2.44,2.44,0,0,1,178,61l1.09-1.26a1.26,1.26,0,0,0,1,.2,2.21,2.21,0,0,0,1.25-.86,2.31,2.31,0,0,0,.64-1.25,1,1,0,0,0-.31-.93.9.9,0,0,0-.8-.21,2.78,2.78,0,0,0-1.08.69l-.59.57a3.77,3.77,0,0,1-1.91,1,2,2,0,0,1-1.75-.53,2.34,2.34,0,0,1-.79-1.24,2.65,2.65,0,0,1,.1-1.44,4.14,4.14,0,0,1,.87-1.48,4,4,0,0,1,2.07-1.38,2.33,2.33,0,0,1,2.08.56l-1.09,1.24a1.09,1.09,0,0,0-.9-.19,2,2,0,0,0-1.06.72,1.89,1.89,0,0,0-.54,1.1.92.92,0,0,0,.32.82.86.86,0,0,0,.72.22,2,2,0,0,0,.9-.55l.6-.56a4.43,4.43,0,0,1,2.05-1.17,2.06,2.06,0,0,1,1.86.51,2.31,2.31,0,0,1,.76,1.27,2.87,2.87,0,0,1-.11,1.55A4.71,4.71,0,0,1,182.38,60Zm7.16-6.12a4.94,4.94,0,0,1-1.82.73,4.44,4.44,0,0,1-1.71-.06,4.27,4.27,0,0,1-1.46-.69,4.41,4.41,0,0,1-1.1-1.18l-.17-.26a4.43,4.43,0,0,1-.6-1.51,4.52,4.52,0,0,1,0-1.64,4.11,4.11,0,0,1,.68-1.57,4.73,4.73,0,0,1,1.41-1.32,4.88,4.88,0,0,1,1.79-.72,4.45,4.45,0,0,1,1.71.06,4,4,0,0,1,1.49.69,4.29,4.29,0,0,1,1.11,1.18l.17.26a4.46,4.46,0,0,1,.6,1.5,4.15,4.15,0,0,1,0,1.61,4.24,4.24,0,0,1-.67,1.57A4.82,4.82,0,0,1,189.54,53.89Zm-.84-1.33a2.8,2.8,0,0,0,1-1.1,2.44,2.44,0,0,0,.22-1.36,3.18,3.18,0,0,0-.51-1.4,3.25,3.25,0,0,0-1.06-1.06,2.47,2.47,0,0,0-1.34-.37,2.91,2.91,0,0,0-2.42,1.54,2.46,2.46,0,0,0-.23,1.37,3.43,3.43,0,0,0,1.56,2.46,2.42,2.42,0,0,0,1.33.38A2.71,2.71,0,0,0,188.7,52.56Zm10.11-2.73a4.29,4.29,0,0,1-1.89.14,3.56,3.56,0,0,1-1.53-.6,4.3,4.3,0,0,1-1.11-1.14,4.88,4.88,0,0,1-.66-1.43l-.07-.27a4.55,4.55,0,0,1-.17-1.6,4.17,4.17,0,0,1,.39-1.54,3.75,3.75,0,0,1,1-1.29,4.45,4.45,0,0,1,1.67-.84,4.52,4.52,0,0,1,1.95-.12,3.38,3.38,0,0,1,1.6.74,3.25,3.25,0,0,1,1,1.5l-1.69.46a1.87,1.87,0,0,0-.91-1,2.11,2.11,0,0,0-1.54-.07,2.25,2.25,0,0,0-1.18.71,2.23,2.23,0,0,0-.49,1.18,3.78,3.78,0,0,0,.14,1.5,3.9,3.9,0,0,0,.63,1.33,2.15,2.15,0,0,0,1,.77,2.23,2.23,0,0,0,1.4,0,2.43,2.43,0,0,0,1-.5,2,2,0,0,0,.55-.78,1.69,1.69,0,0,0,.08-.92l1.7-.47a3.14,3.14,0,0,1-.09,1.83,3.55,3.55,0,0,1-1,1.47A4.51,4.51,0,0,1,198.81,49.83Zm4.73-8.2-.06-1.39,3-.14.06,1.39ZM205.23,39a1,1,0,0,1-1.14-1,1.07,1.07,0,0,1,.23-.77,1.14,1.14,0,0,1,.82-.34,1.07,1.07,0,0,1,.85.27,1.16,1.16,0,0,1,.07,1.5A1,1,0,0,1,205.23,39Zm-.15,9.51-.38-8.32,1.81-.08.38,8.32Zm7,.49a3.78,3.78,0,0,1-1.52-.59,2.39,2.39,0,0,1-.88-1.09,2.76,2.76,0,0,1-.11-1.5,2.43,2.43,0,0,1,.67-1.39,2.5,2.5,0,0,1,1.35-.66,5.09,5.09,0,0,1,1.9,0l2.06.35-.2,1.18-2.1-.37a1.8,1.8,0,0,0-1.3.18,1.35,1.35,0,0,0-.61.94,1.3,1.3,0,0,0,.26,1.07,1.87,1.87,0,0,0,1.17.59,2.43,2.43,0,0,0,.93,0,1.59,1.59,0,0,0,.81-.46,2.3,2.3,0,0,0,.51-1.1l.35.67a3.42,3.42,0,0,1-.67,1.38,2.32,2.32,0,0,1-1.1.74A3.18,3.18,0,0,1,212.11,49Zm2.7.24.42-2.45-.28-.05.47-2.77a1.58,1.58,0,0,0-.19-1.23,1.63,1.63,0,0,0-1.11-.6l-.94-.14-1-.14-.89-.1.27-1.54.75.08.84.1.83.13a5.89,5.89,0,0,1,2,.68A2.42,2.42,0,0,1,217,42.42a3.68,3.68,0,0,1,.08,1.93l-.88,5.13Zm4.13,1.29,4.22-10.47,1.69.68L220.64,51.2Zm2.68-9.59.52-1.29,2.71,1.09L224.33,42Zm-30,65.39a4.27,4.27,0,0,1-2.08-1.75,2.44,2.44,0,0,1-.07-2.19l1.52.7a1.2,1.2,0,0,0,.08,1,2.23,2.23,0,0,0,1.17,1,2.34,2.34,0,0,0,1.37.26,1,1,0,0,0,.81-.56.88.88,0,0,0,0-.82,2.58,2.58,0,0,0-1-.84l-.71-.42a3.75,3.75,0,0,1-1.53-1.54,2.07,2.07,0,0,1,0-1.83,2.35,2.35,0,0,1,1-1.1,2.68,2.68,0,0,1,1.42-.32,4.54,4.54,0,0,1,1.67.43,4.09,4.09,0,0,1,1.89,1.61,2.3,2.3,0,0,1,0,2.14l-1.5-.69a1.11,1.11,0,0,0-.07-.92,2,2,0,0,0-1-.82,1.91,1.91,0,0,0-1.2-.21.93.93,0,0,0-.7.54.83.83,0,0,0,0,.75,2,2,0,0,0,.78.71l.71.42a4.5,4.5,0,0,1,1.7,1.65,2.07,2.07,0,0,1,0,1.92,2.31,2.31,0,0,1-1,1.09,2.85,2.85,0,0,1-1.53.32A4.77,4.77,0,0,1,191.66,106.32Zm8.17-4.68.21-1.37,3,.46-.22,1.37Zm.15,7,1.27-8.24,1.79.28L201.76,109Zm2-9.29a1.06,1.06,0,0,1-.77-.42,1.1,1.1,0,0,1-.16-.79,1.15,1.15,0,0,1,.38-.7,1.06,1.06,0,0,1,.87-.17,1.08,1.08,0,0,1,.79.43,1.13,1.13,0,0,1,.15.78,1.12,1.12,0,0,1-.39.71A1.13,1.13,0,0,1,202,99.4Zm5.4,9.94-1.32-8.22,1.42-.23.56,3.52-.16,0a5.53,5.53,0,0,1,0-2.11,2.66,2.66,0,0,1,.8-1.44,3.07,3.07,0,0,1,1.59-.7h.08a2.75,2.75,0,0,1,2.43.6,4.56,4.56,0,0,1,1.2,2.69l.75,4.7-1.79.28-.79-4.94a2,2,0,0,0-.71-1.31,1.81,1.81,0,0,0-1.43-.31,1.9,1.9,0,0,0-1.31.77,2,2,0,0,0-.31,1.53l.78,4.87Zm16.19-5a4.47,4.47,0,0,1-1.78.66,3.73,3.73,0,0,1-1.64-.15,4.65,4.65,0,0,1-1.39-.78,5.12,5.12,0,0,1-1-1.2l-.14-.23a4.83,4.83,0,0,1-.61-1.49,4.48,4.48,0,0,1,0-1.59,3.82,3.82,0,0,1,.6-1.52,4.44,4.44,0,0,1,1.37-1.27,4.51,4.51,0,0,1,1.84-.66,3.46,3.46,0,0,1,1.75.27,3.29,3.29,0,0,1,1.38,1.15l-1.49.92a1.88,1.88,0,0,0-1.15-.68,2.09,2.09,0,0,0-1.49.36,2.14,2.14,0,0,0-1.09,2.28,4.3,4.3,0,0,0,1.53,2.51,2.12,2.12,0,0,0,1.21.45,2.22,2.22,0,0,0,1.34-.39,2.39,2.39,0,0,0,.81-.76,1.94,1.94,0,0,0,.31-.9,1.64,1.64,0,0,0-.18-.91l1.51-.92a3.21,3.21,0,0,1,.42,1.78A3.58,3.58,0,0,1,225,103,4.62,4.62,0,0,1,223.6,104.36Zm9.4-8.78a4.54,4.54,0,0,1-1.42,1.3,3.86,3.86,0,0,1-1.57.48,4.35,4.35,0,0,1-1.56-.2,5.22,5.22,0,0,1-1.41-.72l-.24-.18a4.89,4.89,0,0,1-1.13-1.14,4.11,4.11,0,0,1-.65-1.43,3.54,3.54,0,0,1,0-1.62,4.24,4.24,0,0,1,.78-1.68,4,4,0,0,1,1.8-1.46,3.68,3.68,0,0,1,2-.18,4.7,4.7,0,0,1,1.89.83l.59.43-4.37,6-1-.72,3.65-5,.21.77a3.64,3.64,0,0,0-1.32-.64,2.09,2.09,0,0,0-1.22.06,2.29,2.29,0,0,0-1,.84,2.4,2.4,0,0,0-.5,1.3,2.26,2.26,0,0,0,.35,1.25A4.2,4.2,0,0,0,227.94,95a4,4,0,0,0,1.36.67,2.2,2.2,0,0,0,1.32,0,2.38,2.38,0,0,0,1.14-.92,2.43,2.43,0,0,0,.54-1.37,1.52,1.52,0,0,0-.31-1.07l1-1.36a3.27,3.27,0,0,1,.79,1.43,3.33,3.33,0,0,1,0,1.63A4.44,4.44,0,0,1,233,95.58Z"/></g></svg>