<svg id="Grid_-_16x16" data-name="Grid - 16x16" xmlns="http://www.w3.org/2000/svg" viewBox="0 0 80 80"><defs><style>.cls-1,.cls-2{fill:none;stroke:#679186;stroke-miterlimit:10;}.cls-1{stroke-width:0.96px;}.cls-3{fill:#679186;}</style></defs><title>soundtrack-icon</title><line class="cls-1" x1="50.61" y1="4.64" x2="4.64" y2="50.61"/><line class="cls-1" x1="75.36" y1="29.39" x2="29.39" y2="75.36"/><rect class="cls-2" x="46.65" y="13.43" width="14.85" height="25" transform="translate(-2.49 45.83) rotate(-45)"/><rect class="cls-2" x="32.48" y="27.51" width="15.02" height="25" transform="translate(-16.58 40) rotate(-45)"/><rect class="cls-2" x="18.35" y="41.65" width="15" height="24.97" transform="translate(-30.71 34.13) rotate(-45)"/><rect class="cls-3" x="46.32" y="10.97" width="1.5" height="1.5" transform="translate(22.07 -29.85) rotate(45)"/><rect class="cls-3" x="49.86" y="7.43" width="1.5" height="1.5" transform="translate(20.61 -33.39) rotate(45)"/><rect class="cls-3" x="39.25" y="18.04" width="1.5" height="1.5" transform="translate(25 -22.78) rotate(45)"/><rect class="cls-3" x="42.79" y="14.5" width="1.5" height="1.5" transform="translate(23.54 -26.32) rotate(45)"/><rect class="cls-3" x="32.18" y="25.11" width="1.5" height="1.5" transform="translate(27.93 -15.71) rotate(45)"/><rect class="cls-3" x="35.71" y="21.57" width="1.5" height="1.5" transform="translate(26.46 -19.25) rotate(45)"/><rect class="cls-3" x="25.11" y="32.18" width="1.5" height="1.5" transform="translate(30.86 -8.64) rotate(45)"/><rect class="cls-3" x="28.64" y="28.64" width="1.5" height="1.5" transform="translate(29.39 -12.18) rotate(45)"/><rect class="cls-3" x="18.04" y="39.25" width="1.5" height="1.5" transform="translate(33.79 -1.57) rotate(45)"/><rect class="cls-3" x="21.57" y="35.71" width="1.5" height="1.5" transform="translate(32.32 -5.1) rotate(45)"/><rect class="cls-3" x="10.97" y="46.32" width="1.5" height="1.5" transform="translate(36.72 5.5) rotate(45)"/><rect class="cls-3" x="14.5" y="42.79" width="1.5" height="1.5" transform="translate(35.25 1.97) rotate(45)"/><rect class="cls-3" x="7.43" y="49.86" width="1.5" height="1.5" transform="translate(38.18 9.04) rotate(45)"/><rect class="cls-3" x="67.53" y="32.18" width="1.5" height="1.5" transform="translate(43.28 -38.64) rotate(45)"/><rect class="cls-3" x="71.07" y="28.64" width="1.5" height="1.5" transform="translate(41.82 -42.18) rotate(45)"/><rect class="cls-3" x="60.46" y="39.25" width="1.5" height="1.5" transform="translate(46.21 -31.57) rotate(45)"/><rect class="cls-3" x="64" y="35.71" width="1.5" height="1.5" transform="translate(44.75 -35.1) rotate(45)"/><rect class="cls-3" x="53.39" y="46.32" width="1.5" height="1.5" transform="translate(49.14 -24.5) rotate(45)"/><rect class="cls-3" x="56.93" y="42.79" width="1.5" height="1.5" transform="translate(47.68 -28.03) rotate(45)"/><rect class="cls-3" x="46.32" y="53.39" width="1.5" height="1.5" transform="translate(52.07 -17.43) rotate(45)"/><rect class="cls-3" x="49.86" y="49.86" width="1.5" height="1.5" transform="translate(50.61 -20.96) rotate(45)"/><rect class="cls-3" x="39.25" y="60.46" width="1.5" height="1.5" transform="translate(55 -10.36) rotate(45)"/><rect class="cls-3" x="42.79" y="56.93" width="1.5" height="1.5" transform="translate(53.54 -13.89) rotate(45)"/><rect class="cls-3" x="32.18" y="67.53" width="1.5" height="1.5" transform="translate(57.93 -3.28) rotate(45)"/><rect class="cls-3" x="35.71" y="64" width="1.5" height="1.5" transform="translate(56.46 -6.82) rotate(45)"/><rect class="cls-3" x="28.64" y="71.07" width="1.5" height="1.5" transform="translate(59.39 0.25) rotate(45)"/><rect class="cls-2" x="57.71" y="52.37" width="14.36" height="4.79"/><line class="cls-2" x1="57.71" y1="69.13" x2="57.71" y2="57.16"/><line class="cls-2" x1="72.07" y1="66.73" x2="72.07" y2="57.16"/><ellipse class="cls-2" cx="55.32" cy="69.13" rx="2.39" ry="1.91"/><ellipse class="cls-2" cx="69.68" cy="66.73" rx="2.39" ry="1.91"/></svg>