<svg id="Grid_-_16x16" data-name="Grid - 16x16" xmlns="http://www.w3.org/2000/svg" viewBox="0 0 80 80"><defs><style>.cls-1{fill:none;stroke:#679186;stroke-miterlimit:10;}</style></defs><title>tennis-icon</title><ellipse class="cls-1" cx="50.67" cy="29.33" rx="24.14" ry="18.11" transform="translate(-5.9 44.42) rotate(-45)"/><line class="cls-1" x1="48.12" y1="9.7" x2="70.3" y2="31.88"/><line class="cls-1" x1="42.54" y1="12.66" x2="67.34" y2="37.46"/><line class="cls-1" x1="37.87" y1="16.53" x2="63.47" y2="42.13"/><line class="cls-1" x1="34" y1="21.2" x2="58.8" y2="46"/><line class="cls-1" x1="31.04" y1="26.78" x2="53.22" y2="48.96"/><line class="cls-1" x1="30.3" y1="41.16" x2="62.5" y2="8.96"/><line class="cls-1" x1="67.74" y1="12.26" x2="33.6" y2="46.4"/><line class="cls-1" x1="71.04" y1="17.5" x2="38.84" y2="49.7"/><line class="cls-1" x1="29.41" y1="33.52" x2="54.86" y2="8.07"/><line class="cls-1" x1="71.93" y1="25.14" x2="46.48" y2="50.59"/><line class="cls-1" x1="54.86" y1="8.07" x2="71.93" y2="25.14"/><line class="cls-1" x1="29.33" y1="33.6" x2="46.4" y2="50.67"/><path class="cls-1" d="M17.78,44.12h6a0,0,0,0,1,0,0v29A1.21,1.21,0,0,1,22.6,74.3H19a1.21,1.21,0,0,1-1.21-1.21v-29a0,0,0,0,1,0,0Z" transform="translate(47.96 2.64) rotate(45)"/><ellipse class="cls-1" cx="50.67" cy="29.33" rx="27.16" ry="20.37" transform="translate(-5.9 44.42) rotate(-45)"/><line class="cls-1" x1="31.46" y1="52.8" x2="25.06" y2="50.67"/><line class="cls-1" x1="27.2" y1="57.07" x2="20.79" y2="54.94"/><line class="cls-1" x1="22.93" y1="61.34" x2="16.53" y2="59.21"/><line class="cls-1" x1="22.32" y1="61.21" x2="17.02" y2="59.45"/><circle class="cls-1" cx="60" cy="65" r="5"/><path class="cls-1" d="M55,64.66a3.5,3.5,0,0,1,3.41,1.11,2.16,2.16,0,0,0,3,.56,1.74,1.74,0,0,0,.21-2.49c-1.13-1.34-2.1-1.68-1.8-3.83"/><line class="cls-1" x1="17.94" y1="65.98" x2="12.06" y2="64.02"/></svg>